<svg width="93" height="93" viewBox="0 0 93 93" fill="none" xmlns="http://www.w3.org/2000/svg">
<g clip-path="url(#clip0)">
<path d="M47.9531 13.0781H50.8594V15.9844H47.9531V13.0781Z" fill="black"/>
<path d="M42.1406 8.71875H45.0469V11.625H42.1406V8.71875Z" fill="black"/>
<path d="M34.875 33.4219H37.7812V36.3281H34.875V33.4219Z" fill="black"/>
<path d="M53.7656 33.4219H56.6719V36.3281H53.7656V33.4219Z" fill="black"/>
<path d="M69.75 33.4219H72.6562V36.3281H69.75V33.4219Z" fill="black"/>
<path d="M20.3438 33.4219H23.25V36.3281H20.3438V33.4219Z" fill="black"/>
<path d="M33.4219 56.6719H36.3281V59.5781H33.4219V56.6719Z" fill="black"/>
<path d="M55.2188 56.6719H58.125V59.5781H55.2188V56.6719Z" fill="black"/>
<path d="M21.9972 48.0301C20.6574 49.3699 17.3341 54.8729 19.7376 57.2793C20.345 57.8867 21.1515 58.1279 22.0379 58.1279C24.6579 58.1279 27.9826 56.0194 28.9853 55.0182C30.9107 53.0913 30.9107 49.957 28.9853 48.0301C27.0584 46.1062 23.924 46.1047 21.9972 48.0301ZM26.9306 52.9635C25.7506 54.1434 22.5014 55.537 21.833 55.2768C21.4828 54.5169 22.8734 51.2662 24.0534 50.0863C24.4501 49.6896 24.9717 49.4905 25.492 49.4905C26.0136 49.4905 26.5338 49.6881 26.9306 50.0848C27.7225 50.8782 27.7225 52.1686 26.9306 52.9635Z" fill="black"/>
<path d="M43.7941 48.0301C42.4543 49.3699 39.131 54.8729 41.5345 57.2793C42.1419 57.8867 42.9484 58.1279 43.8348 58.1279C46.4547 58.1279 49.7795 56.0194 50.7821 55.0182C52.7075 53.0913 52.7075 49.957 50.7821 48.0301C48.8553 46.1062 45.7209 46.1047 43.7941 48.0301ZM48.7274 52.9635C47.5475 54.1434 44.3012 55.537 43.6299 55.2768C43.2797 54.5169 44.6703 51.2662 45.8502 50.0863C46.2469 49.6896 46.7686 49.4905 47.2888 49.4905C47.8105 49.4905 48.3307 49.6881 48.7274 50.0848C49.5194 50.8782 49.5194 52.1686 48.7274 52.9635Z" fill="black"/>
<path d="M65.5909 48.0301C64.2512 49.3699 60.9279 54.8729 63.3313 57.2793C63.9387 57.8867 64.7452 58.1279 65.6316 58.1279C68.2516 58.1279 71.5764 56.0194 72.579 55.0182C74.5044 53.0913 74.5044 49.957 72.579 48.0301C70.6522 46.1062 67.5178 46.1047 65.5909 48.0301ZM70.5243 52.9635C69.3444 54.1434 66.101 55.537 65.4267 55.2768C65.0765 54.5169 66.4672 51.2662 67.6471 50.0863C68.0438 49.6896 68.5655 49.4905 69.0857 49.4905C69.6074 49.4905 70.1276 49.6881 70.5243 50.0848C71.3163 50.8782 71.3163 52.1686 70.5243 52.9635Z" fill="black"/>
<path d="M14.5312 45.0469H17.4375V47.9531H14.5312V45.0469Z" fill="black"/>
<path d="M75.5625 45.0469H78.4688V47.9531H75.5625V45.0469Z" fill="black"/>
<path d="M91.5469 62.4844H85.5644L83.1347 43.0532C82.863 40.8764 81.003 39.2344 78.8088 39.2344H78.2755L75.7253 21.3856C75.5233 19.963 74.2867 18.8906 72.8495 18.8906H71.0622C70.5173 15.8056 68.4233 11.625 65.3906 11.625C62.358 11.625 60.264 15.8056 59.7191 18.8906H56.313C57.9797 14.4993 53.9022 6.69745 51.211 4.00627C48.5329 1.32525 44.871 1.0913 41.5913 3.20995L39.6587 1.2773C38.8377 0.453375 37.742 0 36.5766 0H34.875V2.90625H36.5766C36.9646 2.90625 37.3308 3.05737 37.6054 3.33202L39.3652 5.09175C35.959 8.72747 35.7483 13.2045 38.8827 16.3375C39.6747 17.1294 40.9084 18.0405 42.3688 18.8906H33.2824C32.736 15.8056 30.642 11.625 27.6094 11.625C24.5767 11.625 22.4827 15.8056 21.9378 18.8906H20.1505C18.7133 18.8906 17.4767 19.963 17.2747 21.3856L14.7245 39.2344H14.1912C11.997 39.2344 10.137 40.8764 9.86527 43.0532L7.43564 62.4844H1.45312C0.651 62.4844 0 63.1354 0 63.9375V66.8438C0 69.2472 1.95591 71.2031 4.35938 71.2031H34.8488L37.6548 78.4164L34.9186 84.2812H30.5156C28.1122 84.2812 26.1562 86.2372 26.1562 88.6406V91.5469C26.1562 92.349 26.8072 93 27.6094 93H65.3906C66.1927 93 66.8438 92.349 66.8438 91.5469V88.6406C66.8438 86.2372 64.8878 84.2812 62.4844 84.2812H58.0814L55.3452 78.4164L58.1512 71.2031H79.9219V68.2969H4.35938C3.5587 68.2969 2.90625 67.6444 2.90625 66.8438V65.3906H90.0938V66.8438C90.0938 67.6444 89.4413 68.2969 88.6406 68.2969H82.8281V71.2031H88.6406C91.0441 71.2031 93 69.2472 93 66.8438V63.9375C93 63.1354 92.349 62.4844 91.5469 62.4844ZM63.9375 88.6406V90.0938H29.0625V88.6406C29.0625 87.84 29.715 87.1875 30.5156 87.1875H62.4844C63.285 87.1875 63.9375 87.84 63.9375 88.6406ZM55.0328 71.2031L52.4113 77.9427C52.2675 78.3118 52.282 78.7245 52.4491 79.0834L54.8744 84.2812H47.9531V75.5625H45.0469V84.2812H38.1256L40.5509 79.0834C40.718 78.7245 40.7325 78.3118 40.5887 77.9427L37.9673 71.2031H55.0328ZM65.3906 14.5312C66.2581 14.5312 67.5921 16.8504 68.0949 18.8906H62.6849C63.1891 16.8504 64.5231 14.5312 65.3906 14.5312ZM40.936 14.2828C38.4802 11.827 39.727 8.82773 41.7149 6.83986C42.9195 5.63522 44.4976 4.70231 46.1004 4.70231C47.1394 4.70231 48.19 5.09611 49.1578 6.06244C51.8751 8.77978 55.117 16.5424 53.2672 18.3922C53.0013 18.6581 52.6118 18.8194 52.1338 18.8906H50.7199C47.6218 18.5433 42.9268 16.2721 40.936 14.2828ZM27.6094 14.5312C28.4769 14.5312 29.8109 16.8504 30.3136 18.8906H24.9037C25.4079 16.8504 26.7419 14.5312 27.6094 14.5312ZM50.6617 21.7969C50.916 21.8158 51.166 21.8274 51.4116 21.8274C51.6542 21.8274 51.8925 21.8172 52.125 21.7969H72.8495L73.2651 24.7031H68.2969C67.4948 24.7031 66.8438 25.3541 66.8438 26.1562V27.6094C66.8438 28.4144 66.5212 29.1642 65.937 29.7179C65.3528 30.2715 64.5929 30.552 63.7791 30.5113C62.2635 30.4313 61.0312 29.0189 61.0312 27.3623V26.1562C61.0312 25.3541 60.3802 24.7031 59.5781 24.7031H50.8594C50.0573 24.7031 49.4062 25.3541 49.4062 26.1562V27.6094C49.4062 28.4144 49.0837 29.1642 48.4995 29.7179C47.9153 30.2715 47.1481 30.552 46.3416 30.5113C44.826 30.4313 43.5938 29.0189 43.5938 27.3623V26.1562C43.5938 25.3541 42.9427 24.7031 42.1406 24.7031H33.4219C32.6198 24.7031 31.9688 25.3541 31.9688 26.1562V27.3623C31.9688 29.0189 30.7365 30.4313 29.2209 30.5113C28.4042 30.5505 27.6472 30.2715 27.063 29.7179C26.4788 29.1642 26.1562 28.4144 26.1562 27.6094V26.1562C26.1562 25.3541 25.5053 24.7031 24.7031 24.7031H19.7363L20.1519 21.7969H50.6617ZM19.3207 27.6094H23.25C23.25 29.1962 23.9112 30.7336 25.062 31.8263C26.1533 32.8624 27.5614 33.4219 29.0567 33.4219C29.1613 33.4219 29.2674 33.419 29.372 33.4132C32.3785 33.2562 34.75 30.7278 34.8692 27.6094H40.6919C40.811 30.7278 43.1825 33.2562 46.189 33.4132C47.7991 33.5047 49.3321 32.9336 50.499 31.8263C51.6513 30.7336 52.3125 29.1962 52.3125 27.6094H58.1294C58.2485 30.7278 60.62 33.2562 63.6265 33.4132C65.238 33.5047 66.7696 32.9336 67.9365 31.8263C69.0888 30.7336 69.75 29.1962 69.75 27.6094H73.6792L75.3402 39.2344H17.6598L19.3207 27.6094ZM10.3651 62.4844L12.7497 43.4136C12.8398 42.687 13.4588 42.1406 14.1912 42.1406H78.8102C79.5412 42.1406 80.1616 42.687 80.2517 43.4136L82.6349 62.4844H10.3651Z" fill="black"/>
</g>
<defs>
<clipPath id="clip0">
<rect width="93" height="93" fill="white"/>
</clipPath>
</defs>
</svg>
