<svg width="95" height="95" viewBox="0 0 95 95" fill="none" xmlns="http://www.w3.org/2000/svg">
<g clip-path="url(#clip0)">
<path d="M81.2847 3.93338H76.5847V2.36672C76.5847 1.50152 75.8833 0.800049 75.0181 0.800049C74.1529 0.800049 73.4514 1.50152 73.4514 2.36672V3.93338H70.3181V2.36672C70.3181 1.50152 69.6166 0.800049 68.7514 0.800049C67.8862 0.800049 67.1847 1.50152 67.1847 2.36672V3.93338H64.0514V2.36672C64.0514 1.50152 63.3499 0.800049 62.4847 0.800049C61.6195 0.800049 60.9181 1.50152 60.9181 2.36672V3.93338H57.7847V2.36672C57.7847 1.50152 57.0833 0.800049 56.2181 0.800049C55.3529 0.800049 54.6514 1.50152 54.6514 2.36672V3.93338H32.7181V2.36672C32.7181 1.50152 32.0166 0.800049 31.1514 0.800049C30.2862 0.800049 29.5847 1.50152 29.5847 2.36672V3.93338H26.4514V2.36672C26.4514 1.50152 25.7499 0.800049 24.8847 0.800049C24.0195 0.800049 23.3181 1.50152 23.3181 2.36672V3.93338H20.1847V2.36672C20.1847 1.50152 19.4833 0.800049 18.6181 0.800049C17.7529 0.800049 17.0514 1.50152 17.0514 2.36672V3.93338H13.9181V2.36672C13.9181 1.50152 13.2166 0.800049 12.3514 0.800049C11.4862 0.800049 10.7847 1.50152 10.7847 2.36672V3.93338H6.08473C5.21954 3.93338 4.51807 4.63486 4.51807 5.50005V79.1334C4.51807 79.9986 5.21954 80.7001 6.08473 80.7001H51.5964C52.4616 80.7022 53.1648 80.0025 53.167 79.1373C53.167 79.0995 53.1658 79.0615 53.1631 79.0237L53.1505 78.842C53.1161 78.419 53.0847 77.996 53.0847 77.5667C53.0898 76.0161 53.2727 74.4712 53.6299 72.9623C53.9785 71.4602 54.4994 70.0034 55.1825 68.6211C55.2499 68.4832 55.311 68.3438 55.3815 68.2075C55.5898 67.8095 55.8154 67.4241 56.0489 67.0403C56.1225 66.9196 56.1946 66.7959 56.2713 66.6768C56.5251 66.2789 56.7924 65.8909 57.0735 65.5128C57.1314 65.4329 57.191 65.3561 57.2505 65.2747C57.5638 64.8652 57.8891 64.4684 58.2265 64.084L58.2735 64.0323C60.5115 61.5346 63.3245 59.6198 66.4688 58.4534L66.7445 58.3516C67.1675 58.2027 67.5968 58.0711 68.0307 57.9489C68.2266 57.8941 68.4255 57.8439 68.6245 57.7922C68.9911 57.7014 69.3593 57.6168 69.7321 57.5463C70.0455 57.4883 70.3713 57.4444 70.6925 57.4006C70.9761 57.3598 71.2565 57.3144 71.5432 57.2878C72.1699 57.2282 72.8075 57.1907 73.4514 57.1907C73.876 57.1907 74.2943 57.2236 74.7047 57.2518L74.9006 57.2659C74.9131 57.2659 74.9272 57.2659 74.9397 57.2659C76.9177 57.4145 78.8635 57.8498 80.716 58.5584C81.5223 58.8725 82.4304 58.4736 82.7445 57.6673C82.815 57.4864 82.8512 57.2941 82.8514 57.0998V5.50005C82.8514 4.63486 82.1499 3.93338 81.2847 3.93338ZM53.1693 65.7588C53.1145 65.8481 53.0565 65.9327 53.0064 66.0219C52.7808 66.4183 52.5771 66.8272 52.3797 67.2377C52.2685 67.4633 52.1557 67.6873 52.0523 67.9176C51.8815 68.2952 51.7217 68.6806 51.5713 69.0691C51.5557 69.1083 51.5384 69.1443 51.5228 69.1835V61.9001H55.9893C54.9215 63.0878 53.9768 64.3807 53.1693 65.7588ZM60.9181 57.7233C60.3791 58.0648 59.859 58.4283 59.3514 58.8106V58.7667H51.5181V49.3667H60.9181V57.7233ZM60.9181 46.2334H51.5181V36.8334H60.9181V46.2334ZM60.9181 33.7001H51.5181V24.3H60.9181V33.7001ZM73.4514 36.8334V46.2334H64.0514V36.8334H73.4514ZM64.0514 33.7001V24.3H73.4514V33.7001H64.0514ZM73.4545 54.0667C72.7213 54.0667 71.9975 54.109 71.28 54.1764C70.9667 54.2046 70.6737 54.2532 70.3698 54.2923C69.9859 54.344 69.6037 54.3973 69.2261 54.4678C68.8485 54.5383 68.4334 54.6245 68.0417 54.72C67.802 54.778 67.5623 54.8391 67.3242 54.9049C66.8542 55.0334 66.3842 55.1728 65.9142 55.3294C65.8546 55.3514 65.7967 55.3749 65.7371 55.3952C65.1669 55.5942 64.6029 55.8026 64.0545 56.0423V49.3667H73.4545V54.0667ZM79.7181 54.9315C78.6898 54.6432 77.6428 54.4259 76.5847 54.2814V22.7334C76.5847 21.8682 75.8833 21.1667 75.0181 21.1667H12.3514C11.4862 21.1667 10.7847 21.8682 10.7847 22.7334V72.8667C10.7847 73.7319 11.4862 74.4334 12.3514 74.4334H50.1848C50.0372 75.4715 49.9592 76.5182 49.9514 77.5667H7.6514V18.0334H79.7181V54.9315ZM38.9847 58.7667V49.3667H48.3847V58.7667H38.9847ZM48.3847 61.9001V71.3H38.9847V61.9001H48.3847ZM38.9847 46.2334V36.8334H48.3847V46.2334H38.9847ZM38.9847 33.7001V24.3H48.3847V33.7001H38.9847ZM26.4514 58.7667V49.3667H35.8514V58.7667H26.4514ZM35.8514 61.9001V71.3H26.4514V61.9001H35.8514ZM26.4514 46.2334V36.8334H35.8514V46.2334H26.4514ZM26.4514 33.7001V24.3H35.8514V33.7001H26.4514ZM13.9181 58.7667V49.3667H23.3181V58.7667H13.9181ZM23.3181 61.9001V71.3H13.9181V61.9001H23.3181ZM13.9181 46.2334V36.8334H23.3181V46.2334H13.9181ZM13.9181 33.7001V24.3H23.3181V33.7001H13.9181ZM79.7181 14.9H7.6514V7.06672H10.7847V8.63338C10.7847 9.49857 11.4862 10.2 12.3514 10.2C13.2166 10.2 13.9181 9.49857 13.9181 8.63338V7.06672H17.0514V8.63338C17.0514 9.49857 17.7529 10.2 18.6181 10.2C19.4833 10.2 20.1847 9.49857 20.1847 8.63338V7.06672H23.3181V8.63338C23.3181 9.49857 24.0195 10.2 24.8847 10.2C25.7499 10.2 26.4514 9.49857 26.4514 8.63338V7.06672H29.5847V8.63338C29.5847 9.49857 30.2862 10.2 31.1514 10.2C32.0166 10.2 32.7181 9.49857 32.7181 8.63338V7.06672H54.6514V8.63338C54.6514 9.49857 55.3529 10.2 56.2181 10.2C57.0833 10.2 57.7847 9.49857 57.7847 8.63338V7.06672H60.9181V8.63338C60.9181 9.49857 61.6195 10.2 62.4847 10.2C63.3499 10.2 64.0514 9.49857 64.0514 8.63338V7.06672H67.1847V8.63338C67.1847 9.49857 67.8862 10.2 68.7514 10.2C69.6166 10.2 70.3181 9.49857 70.3181 8.63338V7.06672H73.4514V8.63338C73.4514 9.49857 74.1529 10.2 75.0181 10.2C75.8833 10.2 76.5847 9.49857 76.5847 8.63338V7.06672H79.7181V14.9Z" fill="black"/>
<path d="M73.4516 60.3334C63.9339 60.3334 56.2183 68.049 56.2183 77.5667C56.2183 87.0844 63.9339 94.8 73.4516 94.8C82.9693 94.8 90.6849 87.0844 90.6849 77.5667C90.6738 68.0537 82.9646 60.3445 73.4516 60.3334ZM73.4516 91.6667C65.6645 91.6667 59.3516 85.3538 59.3516 77.5667C59.3516 69.7794 65.6645 63.4667 73.4516 63.4667C81.2389 63.4667 87.5516 69.7794 87.5516 77.5667C87.543 85.3503 81.2352 91.6581 73.4516 91.6667Z" fill="black"/>
<path d="M82.3542 68.6257C81.7471 68.0392 80.7844 68.0392 80.1773 68.6257L73.4516 75.3514L69.8593 71.7591C69.2369 71.1579 68.2452 71.1751 67.644 71.7975C67.0575 72.4045 67.0575 73.3673 67.644 73.9743L72.344 78.6743C72.9558 79.2859 73.9475 79.2859 74.5593 78.6743L82.3926 70.841C82.9938 70.2187 82.9766 69.227 82.3542 68.6257Z" fill="black"/>
</g>
<defs>
<clipPath id="clip0">
<rect width="94" height="94" fill="white" transform="translate(0.601562 0.800049)"/>
</clipPath>
</defs>
</svg>
