<svg width="88" height="88" viewBox="0 0 88 88" fill="none" xmlns="http://www.w3.org/2000/svg">
<g clip-path="url(#clip0)">
<path d="M44.001 0C19.7007 0 0.000976562 19.6997 0.000976562 44C0.000976562 68.3003 19.7007 88 44.001 88C68.3012 88 88.001 68.3003 88.001 44C87.9738 19.7112 68.2898 0.0272136 44.001 0ZM44.001 85.0667C21.3206 85.0667 2.93431 66.6803 2.93431 44C2.93431 21.3197 21.3206 2.93333 44.001 2.93333C66.6813 2.93333 85.0676 21.3197 85.0676 44C85.0419 66.6696 66.6706 85.0409 44.001 85.0667Z" fill="black"/>
<path d="M44.0008 8.79999C24.5603 8.79999 8.80078 24.5595 8.80078 44C8.80078 63.4405 24.5603 79.2 44.0008 79.2C63.4413 79.2 79.2008 63.4405 79.2008 44C79.1779 24.5688 63.432 8.8229 44.0008 8.79999ZM45.4674 76.2301V71.8666C45.4674 71.0567 44.8107 70.4 44.0008 70.4C43.1908 70.4 42.5341 71.0567 42.5341 71.8666V76.2301C25.8766 75.4524 12.5484 62.1242 11.7706 45.4667H16.1341C16.9441 45.4667 17.6008 44.8099 17.6008 44C17.6008 43.19 16.9441 42.5333 16.1341 42.5333H11.7706C12.5484 25.8758 25.8766 12.5476 42.5341 11.7698V16.1333C42.5341 16.9433 43.1908 17.6 44.0008 17.6C44.8107 17.6 45.4674 16.9433 45.4674 16.1333V11.7698C62.125 12.5476 75.4532 25.8758 76.2309 42.5333H71.8674C71.0575 42.5333 70.4008 43.19 70.4008 44C70.4008 44.8099 71.0575 45.4667 71.8674 45.4667H76.2309C75.4532 62.1242 62.125 75.4524 45.4674 76.2301Z" fill="black"/>
<path d="M63.0678 42.5333H48.1312C47.5117 40.7816 45.8588 39.6078 44.0011 39.5999C43.3466 39.6021 42.7013 39.7525 42.1134 40.0396L42.1048 40.0267L25.9715 23.8934C25.3957 23.3377 24.4812 23.3456 23.9154 23.9113C23.3496 24.4771 23.3418 25.3916 23.8975 25.9674L40.0308 42.1007L40.0437 42.1093C39.7558 42.698 39.604 43.3446 39.6011 43.9999C39.5968 46.1405 41.1373 47.9717 43.247 48.3348C45.3568 48.6971 47.42 47.4854 48.1312 45.4666H63.0678C63.8778 45.4666 64.5345 44.8099 64.5345 43.9999C64.5345 43.19 63.8778 42.5333 63.0678 42.5333ZM44.0011 45.4666C43.1912 45.4666 42.5345 44.8099 42.5345 43.9999C42.5345 43.19 43.1912 42.5333 44.0011 42.5333C44.8111 42.5333 45.4678 43.19 45.4678 43.9999C45.4678 44.8099 44.8111 45.4666 44.0011 45.4666Z" fill="black"/>
</g>
<defs>
<clipPath id="clip0">
<rect width="88" height="88" fill="white" transform="translate(0.000976562)"/>
</clipPath>
</defs>
</svg>
