<svg width="86" height="86" viewBox="0 0 86 86" fill="none" xmlns="http://www.w3.org/2000/svg">
<g clip-path="url(#clip0)">
<path d="M78.4144 33.4701L78.4145 33.4699L68.3269 26.7822V4.42865C68.3269 3.70606 67.7411 3.12024 67.0185 3.12024H11.9798C11.2572 3.12024 10.6714 3.70606 10.6714 4.42865V26.7838L0.585469 33.4699L0.585644 33.4703C0.232897 33.7046 0 34.1051 0 34.5604V75.0793C0 75.8018 0.585818 76.3877 1.30841 76.3877H77.6916C78.4142 76.3877 79 75.8018 79 75.0793V34.5604C79 34.1051 78.7671 33.7046 78.4144 33.4701ZM10.6714 38.0459L6.56734 35.8688H10.6714V38.0459ZM2.61682 36.7355L32.7059 52.6964L2.61682 72.6413V36.7355ZM39.4995 51.3323L73.3501 73.7708H5.64901L39.4995 51.3323ZM46.2936 52.6966L76.383 36.7355V72.642L46.2936 52.6966ZM68.3269 35.8688H72.4328L68.3269 38.0467V35.8688ZM73.3501 33.252H68.3269V29.9217L73.3501 33.252ZM65.7101 5.73706V39.4349L43.8113 51.0511L40.2222 48.6721C39.7842 48.3816 39.2146 48.3816 38.7765 48.6721L35.188 51.0508L13.2882 39.434V5.73706H65.7101ZM10.6714 33.252H5.65023L10.6714 29.9234V33.252Z" fill="black"/>
<path d="M39.4989 37.5298H49.9232C50.6458 37.5298 51.2316 36.944 51.2316 36.2214C51.2316 35.4988 50.6458 34.913 49.9232 34.913H39.4989C34.4723 34.913 30.3829 30.8236 30.3829 25.7971V25.411C30.3829 20.3844 34.4723 16.295 39.4989 16.295C44.5254 16.295 48.6148 20.3844 48.6148 25.411V26.3762C48.6148 27.4643 47.7296 28.3497 46.6414 28.3497C45.5531 28.3497 44.668 27.4645 44.668 26.3762V24.5424C44.668 21.4259 42.1326 18.8904 39.0162 18.8904C35.8997 18.8904 33.3644 21.4257 33.3644 24.5424C33.3644 27.6588 35.8997 30.1942 39.0162 30.1942C40.4413 30.1942 41.7439 29.663 42.739 28.7895C43.5492 30.0949 44.9951 30.9663 46.6414 30.9663C49.1724 30.9663 51.2316 28.9072 51.2316 26.3761V25.4108C51.2316 18.9413 45.9684 13.678 39.4989 13.678C33.0294 13.678 27.7661 18.9413 27.7661 25.4108V25.7969C27.7661 32.2665 33.0294 37.5298 39.4989 37.5298ZM39.0162 27.5774C37.3426 27.5774 35.9812 26.2159 35.9812 24.5424C35.9812 22.8688 37.3428 21.5072 39.0162 21.5072C40.6895 21.5072 42.0511 22.8688 42.0511 24.5424C42.0511 26.2159 40.6897 27.5774 39.0162 27.5774Z" fill="black"/>
</g>
<defs>
<clipPath id="clip0">
<rect width="86" height="86" fill="white"/>
</clipPath>
</defs>
</svg>
