<svg width="91" height="93" viewBox="0 0 91 93" fill="none" xmlns="http://www.w3.org/2000/svg">
<g clip-path="url(#clip0)">
<path d="M90.4493 43.6867L81.3505 36.021C81.0854 35.8047 80.7557 35.685 80.415 35.6818L67.7933 30.1395C68.0556 29.7288 68.3123 29.317 68.5392 28.902C74.3089 19.0534 74.1771 9.01777 68.2118 3.92737C64.7051 1.13145 60.1838 -0.0160558 55.7867 0.774103C51.7534 1.46886 48.132 3.68716 45.6558 6.98003C43.1796 3.68734 39.5582 1.46886 35.5249 0.774103C31.1279 -0.0165948 26.6063 1.13091 23.0999 3.92719C17.1347 9.01759 17.003 19.0534 22.7503 28.8614C22.9629 29.2502 23.2049 29.635 23.4482 30.0197L10.0159 35.9312C9.89848 35.9856 9.7883 36.0551 9.68843 36.1379C9.67652 36.1473 9.66195 36.1489 9.65022 36.1588L0.551445 43.8245C0.147332 44.1651 -0.0533031 44.6932 0.0211576 45.2197C0.0956182 45.7463 0.43469 46.1962 0.917174 46.4086L9.10518 50.0076V75.6653C9.11229 75.714 9.12189 75.7623 9.13397 75.8099C9.14197 75.9578 9.17111 76.1037 9.22034 76.2431C9.26494 76.3326 9.31843 76.4174 9.37992 76.4961C9.42506 76.5803 9.47802 76.6599 9.53826 76.7338C9.64862 76.8396 9.77408 76.9282 9.91057 76.9961C9.94966 77.0176 9.97579 77.053 10.0172 77.0712L10.0275 77.0758L10.0343 77.0787L44.8959 92.4024L44.9012 92.4035C44.925 92.4137 44.9526 92.4137 44.9769 92.4229C45.1411 92.4883 45.3156 92.5238 45.4921 92.5281L45.4987 92.5296H45.4996H45.5003H45.501H45.5019L45.5084 92.5281C45.6849 92.5238 45.8593 92.4883 46.0235 92.4229C46.048 92.4137 46.0755 92.4139 46.0993 92.4035L46.1045 92.4024L80.9832 77.0712C81.5618 76.8171 81.9245 76.2275 81.894 75.5904L81.8884 75.5629C81.8888 75.5505 81.8955 75.5401 81.8955 75.5275V49.8694L90.0821 46.271C90.565 46.0591 90.9048 45.6093 90.9796 45.0825C91.0542 44.5557 90.8536 44.0275 90.4493 43.6867ZM25.0561 6.2718C27.2547 4.50391 29.9926 3.56302 32.8014 3.60991C37.6025 3.60416 42.0269 6.23784 44.3512 10.4851C44.6448 10.922 45.1335 11.1834 45.656 11.1834C46.1784 11.1834 46.667 10.9218 46.9607 10.4851C48.9269 6.95793 52.3503 4.50463 56.2935 3.79712C59.8115 3.1471 63.4364 4.04757 66.2556 6.27198C71.0479 10.3608 70.9161 18.826 65.9077 27.3794C61.8973 34.7127 50.9311 41.7106 45.6561 44.7722C40.3812 41.7104 29.4148 34.7111 25.3824 27.3389C20.3957 18.8258 20.264 10.3608 25.0561 6.2718ZM4.38253 44.5895L10.8754 39.1202L42.6391 53.0824L36.1483 58.5509L4.38253 44.5895ZM43.9839 88.6586L12.1382 74.6605V51.3407L35.7973 61.74C36.323 61.971 36.9325 61.883 37.373 61.5123L43.9839 55.9428V88.6586ZM45.499 50.9965L14.4232 37.3356L25.2827 32.5573C30.595 39.1207 39.5233 44.8058 44.9122 47.8714C45.3736 48.135 45.9378 48.135 46.3991 47.8714C51.7639 44.8196 60.6364 39.1717 65.9439 32.6697L76.5744 37.3372L45.499 50.9965ZM78.8624 74.6597L47.0167 88.6586V55.8048L53.6289 61.3745C54.0689 61.7452 54.6781 61.8332 55.2031 61.6022L78.8622 51.2025V74.6597H78.8624ZM54.8523 58.4131L48.4689 53.0362L80.2334 39.0727L86.6166 44.4504L54.8523 58.4131Z" fill="black"/>
<path d="M31.8519 12.807C32.2542 12.8072 32.64 12.6459 32.9243 12.3582C33.2087 12.0706 33.3684 11.6805 33.3683 11.274V9.74089C33.3683 8.89414 32.6894 8.20782 31.8519 8.20782C31.0143 8.20782 30.3354 8.89414 30.3354 9.74089V11.274C30.3353 11.6807 30.4949 12.0708 30.7794 12.3582C31.0639 12.6457 31.4495 12.8074 31.8519 12.807Z" fill="black"/>
<path d="M31.8519 15.8734C31.4495 15.8732 31.0637 16.0346 30.7794 16.3222C30.4949 16.6099 30.3353 16.9999 30.3354 17.4065V18.9395C30.3354 19.7863 31.0143 20.4726 31.8519 20.4726C32.6894 20.4726 33.3683 19.7863 33.3683 18.9395V17.4065C33.3684 16.9997 33.2089 16.6097 32.9243 16.3222C32.64 16.0346 32.2542 15.8732 31.8519 15.8734Z" fill="black"/>
<path d="M27.302 15.8734H28.8185C29.656 15.8734 30.3349 15.1871 30.3349 14.3403C30.3349 13.4936 29.656 12.8073 28.8185 12.8073H27.302C26.4645 12.8073 25.7856 13.4936 25.7856 14.3403C25.7856 15.1871 26.4645 15.8734 27.302 15.8734Z" fill="black"/>
<path d="M34.8846 15.8734H36.401C37.2385 15.8734 37.9174 15.1871 37.9174 14.3403C37.9174 13.4936 37.2383 12.8073 36.401 12.8073H34.8846C34.047 12.8073 33.3682 13.4936 33.3682 14.3403C33.3682 15.1871 34.047 15.8734 34.8846 15.8734Z" fill="black"/>
</g>
<defs>
<clipPath id="clip0">
<rect width="91" height="92" fill="white" transform="translate(0 0.529785)"/>
</clipPath>
</defs>
</svg>
