<svg width="77" height="77" viewBox="0 0 77 77" fill="none" xmlns="http://www.w3.org/2000/svg">
<path d="M60.8539 47.6988C59.2775 46.0574 57.3761 45.1798 55.361 45.1798C53.362 45.1798 51.4444 46.0411 49.803 47.6825L44.6676 52.8017C44.245 52.5742 43.8225 52.3629 43.4162 52.1516C42.8312 51.8591 42.2786 51.5828 41.8073 51.2903C36.9969 48.2351 32.6253 44.2535 28.4324 39.1018C26.401 36.5341 25.0359 34.3726 24.0446 32.1787C25.3772 30.9599 26.6123 29.6922 27.8149 28.4734C28.2699 28.0184 28.725 27.5471 29.18 27.092C32.5928 23.6792 32.5928 19.2589 29.18 15.8461L24.7434 11.4094C24.2396 10.9057 23.7195 10.3856 23.232 9.86557C22.2569 8.85798 21.2331 7.81789 20.1767 6.84281C18.6004 5.28268 16.7152 4.45386 14.7325 4.45386C12.7499 4.45386 10.8322 5.28268 9.20706 6.84281C9.1908 6.85906 9.1908 6.85906 9.17455 6.87531L3.64908 12.4495C1.56891 14.5297 0.382558 17.0649 0.122536 20.0064C-0.267497 24.7518 1.13012 29.1722 2.20271 32.0649C4.83544 39.1668 8.76827 45.7486 14.635 52.8017C21.7531 61.3012 30.3176 68.013 40.1009 72.7421C43.8387 74.5135 48.8279 76.61 54.4021 76.9675C54.7434 76.9837 55.1009 77 55.426 77C59.18 77 62.3328 75.6511 64.803 72.9697C64.8193 72.9372 64.8518 72.9209 64.868 72.8884C65.7131 71.8646 66.6882 70.9382 67.712 69.9469C68.4108 69.2806 69.1259 68.5818 69.8247 67.8505C71.4336 66.1766 72.2786 64.2264 72.2786 62.2275C72.2786 60.2123 71.4173 58.2784 69.7759 56.6533L60.8539 47.6988ZM66.6719 64.8115C66.6557 64.8115 66.6557 64.8277 66.6719 64.8115C66.0381 65.494 65.3881 66.1116 64.6893 66.7941C63.6329 67.8017 62.5603 68.8581 61.5527 70.0444C59.9114 71.7996 57.9774 72.6284 55.4422 72.6284C55.1985 72.6284 54.9384 72.6284 54.6947 72.6121C49.868 72.3034 45.3826 70.4182 42.0186 68.8093C32.8203 64.3564 24.7434 58.0346 18.0316 50.0227C12.4898 43.3434 8.78452 37.1679 6.33056 30.5373C4.81918 26.4907 4.26664 23.338 4.51041 20.364C4.67292 18.4625 5.40423 16.8862 6.7531 15.5373L12.2948 9.99558C13.0911 9.24801 13.9362 8.84173 14.765 8.84173C15.7889 8.84173 16.6177 9.45928 17.1377 9.97933C17.154 9.99558 17.1702 10.0118 17.1865 10.0281C18.1778 10.9544 19.1204 11.9132 20.1117 12.9371C20.6155 13.4571 21.1356 13.9772 21.6556 14.5135L26.0922 18.9501C27.8149 20.6727 27.8149 22.2654 26.0922 23.988C25.6209 24.4593 25.1659 24.9306 24.6946 25.3856C23.3295 26.7832 22.0294 28.0834 20.6155 29.351C20.583 29.3835 20.5505 29.3997 20.5343 29.4322C19.1366 30.8298 19.3967 32.195 19.6892 33.1213C19.7054 33.17 19.7217 33.2188 19.7379 33.2675C20.8918 36.0628 22.5169 38.6955 24.9871 41.832L25.0034 41.8483C29.4888 47.3737 34.2179 51.6804 39.4346 54.9794C40.1009 55.4019 40.7835 55.7432 41.4335 56.0682C42.0186 56.3608 42.5711 56.637 43.0424 56.9296C43.1074 56.9621 43.1724 57.0108 43.2374 57.0433C43.79 57.3196 44.31 57.4496 44.8463 57.4496C46.1952 57.4496 47.0403 56.6045 47.3165 56.3282L52.8745 50.7703C53.427 50.2177 54.3046 49.5514 55.3285 49.5514C56.336 49.5514 57.1649 50.1852 57.6687 50.7378C57.6849 50.754 57.6849 50.754 57.7012 50.7703L66.6557 59.7248C68.3296 61.3824 68.3296 63.0888 66.6719 64.8115Z" fill="black"/>
<path d="M41.6125 18.3163C45.8704 19.0313 49.7382 21.0465 52.826 24.1343C55.9137 27.222 57.9126 31.0899 58.644 35.3477C58.8227 36.4203 59.7491 37.1679 60.8054 37.1679C60.9354 37.1679 61.0492 37.1516 61.1792 37.1354C62.3818 36.9404 63.1781 35.8028 62.9831 34.6002C62.1055 29.4485 59.6678 24.7518 55.9462 21.0303C52.2247 17.3087 47.528 14.871 42.3763 13.9934C41.1737 13.7984 40.0524 14.5947 39.8411 15.7811C39.6299 16.9674 40.4099 18.1213 41.6125 18.3163Z" fill="black"/>
<path d="M76.9104 33.9664C75.464 25.4832 71.4662 17.7638 65.3232 11.6207C59.1801 5.47772 51.4607 1.47988 42.9775 0.0335088C41.7912 -0.177759 40.6698 0.63481 40.4586 1.82116C40.2635 3.02376 41.0599 4.14511 42.2625 4.35638C49.8356 5.64023 56.7424 9.23179 62.2354 14.7085C67.7284 20.2015 71.3037 27.1083 72.5875 34.6814C72.7663 35.754 73.6926 36.5016 74.749 36.5016C74.879 36.5016 74.9927 36.4854 75.1227 36.4691C76.3091 36.2903 77.1217 35.1527 76.9104 33.9664Z" fill="black"/>
</svg>
